name Run_400 05_newCOP3_v24.mot
datacolumns 19
datarows 127
range 0.008333 0.139583
DataType=double
version=3
OpenSimVersion=4.3-2021-08-27-4bc7ad9
endheader
time	R_ground_force_vx	R_ground_force_vy	R_ground_force_vz	R_ground_force_px	R_ground_force_py	R_ground_force_pz	L_ground_force_vx	L_ground_force_vy	L_ground_force_vz	L_ground_force_px	L_ground_force_py	L_ground_force_pz	R_ground_torque_x	R_ground_torque_y	R_ground_torque_z	L_ground_torque_x	L_ground_torque_y	L_ground_torque_z
0.008333	0	0	0	0	0	0	54.705513	79.20111799999999	21.870649	0.481336	0	-0.273981	0	0	0	0	-19.16618	0
0.009375	0	0	0	0	0	0	51.882629	75.457466	21.113791	0.484916	0	-0.274008	0	0	0	0	-18.3524	0
0.010417	0	0	0	0	0	0	48.996685	71.629768	20.332594	0.48887	0	-0.274042	0	0	0	0	-17.539473	0
0.011458	0	0	0	0	0	0	46.072193	67.75042000000001	19.53204	0.4932	0	-0.274086	0	0	0	0	-16.72883	0
0.0125	0	0	0	0	0	0	43.131741	63.849072	18.716967	0.497908	0	-0.274143	0	0	0	0	-15.921897	0
0.013542	0	0	0	0	0	0	40.196556	59.953419	17.892094	0.5029979999999999	0	-0.274215	0	0	0	0	-15.120086	0
0.014583	0	0	0	0	0	0	37.286781	56.089523	17.062031	0.508475	0	-0.274303	0	0	0	0	-14.324796	0
0.015625	0	0	0	0	0	0	34.421524	52.281906	16.231279	0.5143529999999999	0	-0.274409	0	0	0	0	-13.537404	0
0.016667	0	0	0	0	0	0	31.618809	48.553543	15.40421	0.5206460000000001	0	-0.274531	0	0	0	0	-12.759258	0
0.017708	0	0	0	0	0	0	28.895456	44.925747	14.585049	0.527378	0	-0.274666	0	0	0	0	-11.991674	0
0.01875	0	0	0	0	0	0	26.266964	41.418095	13.777855	0.5345760000000001	0	-0.274806	0	0	0	0	-11.235933	0
0.019792	0	0	0	0	0	0	23.747355	38.048298	12.986493	0.542278	0	-0.27494	0	0	0	0	-10.493271	0
0.020833	0	0	0	0	0	0	21.349045	34.832088	12.214614	0.550525	0	-0.275048	0	0	0	0	-9.764875	0
0.021875	0	0	0	0	0	0	19.082737	31.783165	11.465624	0.559365	0	-0.275102	0	0	0	0	-9.051885	0
0.022917	0	0	0	0	0	0	16.957312	28.91308	10.742663	0.568848	0	-0.275063	0	0	0	0	-8.355381	0
0.023958	0	0	0	0	0	0	14.979761	26.231218	10.048584	0.579021	0	-0.274876	0	0	0	0	-7.676384	0
0.025	0	0	0	0	0	0	13.155137	23.744747	9.385927000000001	0.589924	0	-0.27447	0	0	0	0	-7.015855	0
0.026042	0	0	0	0	0	0	11.48652	21.458616	8.756907	0.6015779999999999	0	-0.273753	0	0	0	0	-6.374683	0
0.027083	0	0	0	0	0	0	9.975011	19.375568	8.163391000000001	0.613973	0	-0.27261	0	0	0	0	-5.753691	0
0.028125	0	0	0	0	0	0	8.619749000000001	17.496178	7.606896	0.627053	0	-0.270904	0	0	0	0	-5.153628	0
0.029167	0	0	0	0	0	0	7.417953	15.818901	7.088569	0.640698	0	-0.268478	0	0	0	0	-4.575171	0
0.030208	0	0	0	0	0	0	6.364983	14.340175	6.609187	0.654703	0	-0.265165	0	0	0	0	-4.018917	0
0.03125	0	0	0	0	0	0	5.454443	13.054504	6.169159	0.66877	0	-0.260805	0	0	0	0	-3.485389	0
0.032292	0	0	0	0	0	0	4.678305	11.954594	5.768522	0.682505	0	-0.255267	0	0	0	0	-2.975029	0
0.033333	0	0	0	0	0	0	4.027075	11.031487	5.406952	0.695433	0	-0.248478	0	0	0	0	-2.488199	0
0.034375	0	0	0	0	0	0	3.48999	10.274725	5.083775	0.707048	0	-0.240455	0	0	0	0	-2.025184	0
0.035417	0	0	0	0	0	0	0	0	0	0	0	0	0	0	0	0	0	0
0.036458	0	0	0	0	0	0	0	0	0	0	0	0	0	0	0	0	0	0
0.0375	0	0	0	0	0	0	0	0	0	0	0	0	0	0	0	0	0	0
0.038542	0	0	0	0	0	0	0	0	0	0	0	0	0	0	0	0	0	0
0.039583	0	0	0	0	0	0	0	0	0	0	0	0	0	0	0	0	0	0
0.040625	0	0	0	0	0	0	0	0	0	0	0	0	0	0	0	0	0	0
0.041667	0	0	0	0	0	0	0	0	0	0	0	0	0	0	0	0	0	0
0.042708	0	0	0	0	0	0	0	0	0	0	0	0	0	0	0	0	0	0
0.04375	0	0	0	0	0	0	0	0	0	0	0	0	0	0	0	0	0	0
0.044792	0	0	0	0	0	0	0	0	0	0	0	0	0	0	0	0	0	0
0.045833	0	0	0	0	0	0	0	0	0	0	0	0	0	0	0	0	0	0
0.046875	0	0	0	0	0	0	0	0	0	0	0	0	0	0	0	0	0	0
0.047917	0	0	0	0	0	0	0	0	0	0	0	0	0	0	0	0	0	0
0.048958	0	0	0	0	0	0	0	0	0	0	0	0	0	0	0	0	0	0
0.05	0	0	0	0	0	0	0	0	0	0	0	0	0	0	0	0	0	0
0.051042	0	0	0	0	0	0	0	0	0	0	0	0	0	0	0	0	0	0
0.052083	0	0	0	0	0	0	0	0	0	0	0	0	0	0	0	0	0	0
0.053125	0	0	0	0	0	0	0	0	0	0	0	0	0	0	0	0	0	0
0.054167	0	0	0	0	0	0	0	0	0	0	0	0	0	0	0	0	0	0
0.055208	0	0	0	0	0	0	0	0	0	0	0	0	0	0	0	0	0	0
0.05625	0	0	0	0	0	0	0	0	0	0	0	0	0	0	0	0	0	0
0.057292	0	0	0	0	0	0	0	0	0	0	0	0	0	0	0	0	0	0
0.058333	0	0	0	0	0	0	0	0	0	0	0	0	0	0	0	0	0	0
0.059375	0	0	0	0	0	0	0	0	0	0	0	0	0	0	0	0	0	0
0.060417	0	0	0	0	0	0	0	0	0	0	0	0	0	0	0	0	0	0
0.061458	0	0	0	0	0	0	0	0	0	0	0	0	0	0	0	0	0	0
0.0625	0	0	0	0	0	0	0	0	0	0	0	0	0	0	0	0	0	0
0.063542	0	0	0	0	0	0	0	0	0	0	0	0	0	0	0	0	0	0
0.064583	0	0	0	0	0	0	0	0	0	0	0	0	0	0	0	0	0	0
0.065625	0	0	0	0	0	0	0	0	0	0	0	0	0	0	0	0	0	0
0.066667	0	0	0	0	0	0	0	0	0	0	0	0	0	0	0	0	0	0
0.067708	0	0	0	0	0	0	0	0	0	0	0	0	0	0	0	0	0	0
0.06875000000000001	0	0	0	0	0	0	0	0	0	0	0	0	0	0	0	0	0	0
0.06979200000000001	0	0	0	0	0	0	0	0	0	0	0	0	0	0	0	0	0	0
0.07083299999999999	0	0	0	0	0	0	0	0	0	0	0	0	0	0	0	0	0	0
0.07187499999999999	0	0	0	0	0	0	0	0	0	0	0	0	0	0	0	0	0	0
0.072917	0	0	0	0	0	0	0	0	0	0	0	0	0	0	0	0	0	0
0.073958	0	0	0	0	0	0	0	0	0	0	0	0	0	0	0	0	0	0
0.075	0	0	0	0	0	0	0	0	0	0	0	0	0	0	0	0	0	0
0.076042	0	0	0	0	0	0	0	0	0	0	0	0	0	0	0	0	0	0
0.077083	0	0	0	0	0	0	0	0	0	0	0	0	0	0	0	0	0	0
0.078125	0	0	0	0	0	0	0	0	0	0	0	0	0	0	0	0	0	0
0.079167	0	0	0	0	0	0	0	0	0	0	0	0	0	0	0	0	0	0
0.080208	0	0	0	0	0	0	0	0	0	0	0	0	0	0	0	0	0	0
0.08125	0	0	0	0	0	0	0	0	0	0	0	0	0	0	0	0	0	0
0.082292	0	0	0	0	0	0	0	0	0	0	0	0	0	0	0	0	0	0
0.083333	0	0	0	0	0	0	0	0	0	0	0	0	0	0	0	0	0	0
0.08437500000000001	0	0	0	0	0	0	0	0	0	0	0	0	0	0	0	0	0	0
0.08541700000000001	0	0	0	0	0	0	0	0	0	0	0	0	0	0	0	0	0	0
0.08645799999999999	0	0	0	0	0	0	0	0	0	0	0	0	0	0	0	0	0	0
0.08749999999999999	0	0	0	0	0	0	0	0	0	0	0	0	0	0	0	0	0	0
0.088542	0	0	0	0	0	0	0	0	0	0	0	0	0	0	0	0	0	0
0.089583	0	0	0	0	0	0	0	0	0	0	0	0	0	0	0	0	0	0
0.090625	0	0	0	0	0	0	0	0	0	0	0	0	0	0	0	0	0	0
0.091667	0	0	0	0	0	0	0	0	0	0	0	0	0	0	0	0	0	0
0.092708	0	0	0	0	0	0	0	0	0	0	0	0	0	0	0	0	0	0
0.09375	0	0	0	0	0	0	0	0	0	0	0	0	0	0	0	0	0	0
0.094792	0	0	0	0	0	0	0	0	0	0	0	0	0	0	0	0	0	0
0.095833	0	0	0	0	0	0	0	0	0	0	0	0	0	0	0	0	0	0
0.096875	0	0	0	0	0	0	0	0	0	0	0	0	0	0	0	0	0	0
0.097917	0	0	0	0	0	0	0	0	0	0	0	0	0	0	0	0	0	0
0.098958	0	0	0	0	0	0	0	0	0	0	0	0	0	0	0	0	0	0
0.1	0	0	0	0	0	0	0	0	0	0	0	0	0	0	0	0	0	0
0.101042	-1.156836	10.019391	1.257541	0.893369	0	-0.116572	0	0	0	0	0	0	-0	2.111119	-0	0	0	0
0.102083	-1.379996	10.575891	0.953864	0.910384	0	-0.123828	0	0	0	0	0	0	-0	2.216921	-0	0	0	0
0.103125	-1.633667	11.266366	0.616825	0.929087	0	-0.132554	0	0	0	0	0	0	-0	2.326311	-0	0	0	0
0.104167	-1.920981	12.114792	0.24628	0.948804	0	-0.1425	0	0	0	0	0	0	-0	2.438614	-0	0	0	0
0.105208	-2.245366	13.148196	-0.157556	0.9688560000000001	0	-0.153346	0	0	0	0	0	0	-0	2.553119	-0	0	0	0
0.10625	-2.610417	14.396976	-0.594102	0.988614	0	-0.164739	0	0	0	0	0	0	-0	2.669087	-0	0	0	0
0.107292	-3.019773	15.89525	-1.062396	1.007552	0	-0.176322	0	0	0	0	0	0	-0	2.785751	-0	0	0	0
0.108333	-3.476985	17.681202	-1.561086	1.025272	0	-0.187769	0	0	0	0	0	0	-0	2.902322	-0	0	0	0
0.109375	-3.985412	19.797417	-2.08842	1.041518	0	-0.198805	0	0	0	0	0	0	-0	3.017992	-0	0	0	0
0.110417	-4.548126	22.291191	-2.642238	1.056163	0	-0.20922	0	0	0	0	0	0	-0	3.131941	-0	0	0	0
0.111458	-5.16785	25.214802	-3.219963	1.069193	0	-0.218869	0	0	0	0	0	0	-0	3.243335	-0	0	0	0
0.1125	-5.84692	28.625717	-3.818589	1.080673	0	-0.22767	0	0	0	0	0	0	-0	3.351341	-0	0	0	0
0.113542	-6.58727	32.586708	-4.434674	1.090724	0	-0.235593	0	0	0	0	0	0	-0	3.455121	-0	0	0	0
0.114583	-7.390441	37.165874	-5.064324	1.099498	0	-0.242649	0	0	0	0	0	0	-0	3.553844	-0	0	0	0
0.115625	-8.257605999999999	42.436512	-5.703187	1.107154	0	-0.248876	0	0	0	0	0	0	-0	3.646689	-0	0	0	0
0.116667	-9.189598999999999	48.476845	-6.34644	1.113847	0	-0.254333	0	0	0	0	0	0	-0	3.732849	-0	0	0	0
0.117708	-10.186955	55.369556	-6.988777	1.119723	0	-0.259088	0	0	0	0	0	0	-0	3.811538	-0	0	0	0
0.11875	-11.249942	63.201099	-7.624403	1.124904	0	-0.263214	0	0	0	0	0	0	-0	3.881994	-0	0	0	0
0.119792	-12.378591	72.060799	-8.247032000000001	1.129498	0	-0.266784	0	0	0	0	0	0	-0	3.943485	-0	0	0	0
0.120833	-13.57273	82.039688	-8.849881999999999	1.133589	0	-0.269866	0	0	0	0	0	0	-0	3.995314	-0	0	0	0
0.121875	-14.832016	93.22906500000001	-9.425682	1.137248	0	-0.272524	0	0	0	0	0	0	-0	4.036824	-0	0	0	0
0.122917	-16.155972	105.718826	-9.966689000000001	1.140528	0	-0.274816	0	0	0	0	0	0	-0	4.067401	-0	0	0	0
0.123958	-17.544043	119.59552	-10.464711	1.143469	0	-0.276793	0	0	0	0	0	0	-0	4.086481	-0	0	0	0
0.125	-18.99567	134.94014	-10.911145	1.146104	0	-0.278499	0	0	0	0	0	0	-0	4.093554	-0	0	0	0
0.126042	-20.510393	151.825775	-11.297026	1.148455	0	-0.279975	0	0	0	0	0	0	-0	4.088165	-0	0	0	0
0.127083	-22.087975	170.314957	-11.613093	1.150541	0	-0.281252	0	0	0	0	0	0	-0	4.069922	-0	0	0	0
0.128125	-23.72855	190.457077	-11.849881	1.152376	0	-0.282361	0	0	0	0	0	0	-0	4.038496	-0	0	0	0
0.129167	-25.432806	212.285553	-11.997811	1.153972	0	-0.283325	0	0	0	0	0	0	-0	3.993627	-0	0	0	0
0.130208	-27.202156	235.815231	-12.047327	1.155338	0	-0.284165	0	0	0	0	0	0	-0	3.935123	-0	0	0	0
0.13125	-29.038923	261.039673	-11.989024	1.156485	0	-0.284899	0	0	0	0	0	0	-0	3.862868	-0	0	0	0
0.132292	-30.946501	287.928955	-11.813824	1.157422	0	-0.285541	0	0	0	0	0	0	-0	3.776817	-0	0	0	0
0.133333	-32.929493	316.427582	-11.513141	1.15816	0	-0.286103	0	0	0	0	0	0	-0	3.677003	-0	0	0	0
0.134375	-34.99379	346.452881	-11.079085	1.158708	0	-0.286596	0	0	0	0	0	0	-0	3.563535	-0	0	0	0
0.135417	-37.146614	377.894135	-10.50467	1.159077	0	-0.28703	0	0	0	0	0	0	-0	3.436599	-0	0	0	0
0.136458	-39.396492	410.612244	-9.784022	1.159279	0	-0.28741	0	0	0	0	0	0	-0	3.296458	-0	0	0	0
0.1375	-41.753147	444.440125	-8.912613	1.159324	0	-0.287744	0	0	0	0	0	0	-0	3.14345	-0	0	0	0
0.138542	-44.227345	479.184174	-7.887467	1.159225	0	-0.288036	0	0	0	0	0	0	-0	2.977988	-0	0	0	0
0.139583	-46.830635	514.626343	-6.707386	1.158994	0	-0.288293	0	0	0	0	0	0	-0	2.800557	-0	0	0	0
